<svg version="1.1" id="Calque_1" xmlns="http://www.w3.org/2000/svg" x="0" y="0" viewBox="0 0 800 600" xml:space="preserve"><style>.st0{fill:#fff;stroke:#671cc9;stroke-width:5;stroke-miterlimit:10}</style><path class="st0" d="M688.5 530h-577c-9.9 0-18-8.1-18-18V88c0-9.9 8.1-18 18-18h577c9.9 0 18 8.1 18 18v424c0 9.9-8.1 18-18 18z"/><path fill="none" stroke="#671cc9" stroke-width="5" stroke-miterlimit="10" d="M93.5 128h613"/><path d="M345 249.3h31.6V269H345zm-76.1 0h31.6V269h-31.6zm153.2 0h31.6V269h-31.6zm77.2 0h31.6V269h-31.6zM345 319.1h31.6v19.7H345zm-76.1 0h31.6v19.7h-31.6zm153.2 0h31.6v19.7h-31.6zm77.2 0h31.6v19.7h-31.6zM345 388.4h31.6v19.7H345zm-76.1 0h31.6v19.7h-31.6zm153.2 0h31.6v19.7h-31.6zm77.2 0h31.6v19.7h-31.6zm75.1-139.1H606V269h-31.6zm0 69.8H606v19.7h-31.6zm0 69.3H606v19.7h-31.6zM194 249.3h31.6V269H194zm151-60.8h31.6v19.7H345zm-76.1 0h31.6v19.7h-31.6zm153.2 0h31.6v19.7h-31.6zm77.2 0h31.6v19.7h-31.6zm75.1 0H606v19.7h-31.6zm-380.4 0h31.6v19.7H194zm151 259.3h31.6v19.7H345zm-76.1 0h31.6v19.7h-31.6zm153.2 0h31.6v19.7h-31.6zm77.2 0h31.6v19.7h-31.6zm75.1 0H606v19.7h-31.6zm-380.4 0h31.6v19.7H194zm0-128.7h31.6v19.7H194zm0 69.3h31.6v19.7H194z" fill="#efefef"/><path d="M128.2 107.3l-9.3-9.3 9.3-9.2m540 0l9.3 9.2-9.3 9.3" fill="#fff" stroke="#671cc9" stroke-width="5" stroke-linecap="round" stroke-linejoin="round" stroke-miterlimit="10"/><circle class="st0" cx="438.1" cy="258" r="16"/></svg>